<mxfile host="app.diagrams.net" modified="2024-05-17T08:17:58.447Z" agent="Mozilla/5.0 (Macintosh; Intel Mac OS X 10.15; rv:126.0) Gecko/20100101 Firefox/126.0" etag="HX0Obvjtc2Aq3RToSNgW" version="24.4.3" type="github">
  <diagram name="Page-1" id="JOWfkH6MdnwbE2q_Opq3">
    <mxGraphModel dx="948" dy="538" grid="1" gridSize="10" guides="1" tooltips="1" connect="1" arrows="1" fold="1" page="1" pageScale="1" pageWidth="850" pageHeight="1100" math="0" shadow="0">
      <root>
        <mxCell id="0" />
        <mxCell id="1" parent="0" />
        <mxCell id="MSvbQUZ_M1PV2zRD2lZT-1" value="¿Esta nueva (o revisada) política o iniciativa impacta en el personal, el estudiantsdo " style="rounded=0;whiteSpace=wrap;html=1;" vertex="1" parent="1">
          <mxGeometry x="200" y="40" width="200" height="90" as="geometry" />
        </mxCell>
      </root>
    </mxGraphModel>
  </diagram>
</mxfile>
